<svg width="177" height="67" viewBox="0 0 177 67" fill="none" xmlns="http://www.w3.org/2000/svg">
<rect width="67" height="67" rx="16" fill="#68AEEE"/>
<path d="M23.3073 12H40.6369C49.486 12 53.9106 15.5995 53.9106 22.7985C53.9106 26.7644 52.026 29.782 48.257 31.8511C50.6741 32.4977 52.5587 33.6832 53.9106 35.4075C55.3036 37.1319 56 39.3734 56 42.1323C56 46.3138 54.648 49.5038 51.9441 51.7023C49.2812 53.9008 45.3892 55 40.2682 55H23V49.7624L25.0279 49.5684C26.216 49.4391 26.8101 48.8356 26.8101 47.7579V17.6902L23.3073 17.4962V12ZM34.3073 35.4075V48.9218H40.0838C45.4097 48.9218 48.0726 46.6371 48.0726 42.0677C48.0726 39.9123 47.3966 38.2742 46.0447 37.1534C44.7337 35.9895 42.8492 35.4075 40.3911 35.4075H34.3073ZM34.3073 17.9489V29.6526H38.8547C41.3948 29.6526 43.2589 29.1138 44.4469 28.0361C45.676 26.9153 46.2905 25.3634 46.2905 23.3805C46.2905 21.3975 45.676 19.9965 44.4469 19.1774C43.2589 18.3584 41.5382 17.9489 39.2849 17.9489H34.3073Z" fill="white"/>
<path d="M34.36 45.984C33.6347 52.256 29.432 55.392 21.752 55.392C17.7413 55.392 14.1573 54.496 11 52.704V41.504L17.528 41.056V46.112C17.528 46.752 17.6133 47.2213 17.784 47.52C17.9547 47.8187 18.4027 48.1173 19.128 48.416C19.8533 48.672 20.9627 48.8 22.456 48.8C23.992 48.8 25.1013 48.352 25.784 47.456C26.4667 46.5173 26.808 45.024 26.808 42.976V17.696L21.816 17.44V12H34.616V18V39.264C34.616 42.2933 34.5307 44.5333 34.36 45.984Z" fill="#091117"/>
<path d="M95.7052 18.444C95.3878 21.188 93.5492 22.56 90.1892 22.56C88.4345 22.56 86.8665 22.168 85.4852 21.384V16.484L88.3412 16.288V18.5C88.3412 18.78 88.3785 18.9853 88.4532 19.116C88.5278 19.2467 88.7238 19.3773 89.0412 19.508C89.3585 19.62 89.8438 19.676 90.4972 19.676C91.1692 19.676 91.6545 19.48 91.9532 19.088C92.2518 18.6773 92.4012 18.024 92.4012 17.128V6.068L90.2172 5.956V3.576H97.5532V5.844L96.6292 5.928C96.0878 5.984 95.8172 6.27333 95.8172 6.796V15.504C95.8172 16.8293 95.7798 17.8093 95.7052 18.444ZM105.915 7.692C107.315 7.692 108.426 8.03733 109.247 8.728C110.068 9.4 110.479 10.352 110.479 11.584C110.479 12.4053 110.302 13.1333 109.947 13.768C109.592 14.384 109.154 14.8693 108.631 15.224C108.108 15.5787 107.474 15.868 106.727 16.092C105.476 16.4653 104.067 16.652 102.499 16.652C102.555 17.6413 102.863 18.444 103.423 19.06C103.983 19.6573 104.842 19.956 105.999 19.956C107.156 19.956 108.314 19.5453 109.471 18.724L110.535 20.992C110.162 21.328 109.527 21.6733 108.631 22.028C107.754 22.3827 106.746 22.56 105.607 22.56C103.33 22.56 101.659 21.9347 100.595 20.684C99.5309 19.4147 98.9989 17.6787 98.9989 15.476C98.9989 13.2733 99.6056 11.4253 100.819 9.932C102.032 8.43867 103.731 7.692 105.915 7.692ZM104.627 14.104C105.318 13.9733 105.952 13.7027 106.531 13.292C107.11 12.8627 107.399 12.3587 107.399 11.78C107.399 10.6413 106.839 10.072 105.719 10.072C104.674 10.072 103.871 10.492 103.311 11.332C102.751 12.1533 102.443 13.1427 102.387 14.3C103.208 14.2813 103.955 14.216 104.627 14.104ZM114.213 19.06V10.464H111.805V8.112H114.213V7.048C114.213 5.21866 114.633 3.90266 115.473 3.1C116.257 2.33466 117.405 1.952 118.917 1.952C120.429 1.952 121.773 2.27866 122.949 2.932L122.137 5.172C121.241 4.70533 120.401 4.472 119.617 4.472C118.833 4.472 118.292 4.668 117.993 5.06C117.695 5.43333 117.545 6.012 117.545 6.796V8.112H121.689V10.464H117.545V19.844L119.897 19.956V22.196H112.477V20.068L113.401 19.984C113.681 19.9467 113.887 19.872 114.017 19.76C114.148 19.6293 114.213 19.396 114.213 19.06ZM124.577 19.06V10.464H122.169V8.112H124.577V7.048C124.577 5.21866 124.997 3.90266 125.837 3.1C126.621 2.33466 127.769 1.952 129.281 1.952C130.793 1.952 132.137 2.27866 133.313 2.932L132.501 5.172C131.605 4.70533 130.765 4.472 129.981 4.472C129.197 4.472 128.655 4.668 128.357 5.06C128.058 5.43333 127.909 6.012 127.909 6.796V8.112H132.053V10.464H127.909V19.844L130.261 19.956V22.196H122.841V20.068L123.765 19.984C124.045 19.9467 124.25 19.872 124.381 19.76C124.511 19.6293 124.577 19.396 124.577 19.06ZM134.912 19.06V11.304C134.912 11.0053 134.856 10.8 134.744 10.688C134.651 10.5573 134.473 10.4827 134.212 10.464L133.036 10.38V8.112H137.768V10.212C138.104 9.484 138.627 8.88667 139.336 8.42C140.045 7.93467 140.857 7.692 141.772 7.692C142.705 7.692 143.592 7.89733 144.432 8.308V12.48L141.828 12.676V11.388C141.828 11.0147 141.735 10.7813 141.548 10.688C141.343 10.5947 141.091 10.548 140.792 10.548C140.045 10.548 139.429 10.8187 138.944 11.36C138.477 11.8827 138.244 12.5547 138.244 13.376V19.872L140.68 19.984V22.196H133.176V20.068L134.1 19.984C134.38 19.9467 134.585 19.872 134.716 19.76C134.847 19.6293 134.912 19.396 134.912 19.06ZM153.138 7.692C154.538 7.692 155.648 8.03733 156.47 8.728C157.291 9.4 157.702 10.352 157.702 11.584C157.702 12.4053 157.524 13.1333 157.17 13.768C156.815 14.384 156.376 14.8693 155.854 15.224C155.331 15.5787 154.696 15.868 153.95 16.092C152.699 16.4653 151.29 16.652 149.722 16.652C149.778 17.6413 150.086 18.444 150.646 19.06C151.206 19.6573 152.064 19.956 153.222 19.956C154.379 19.956 155.536 19.5453 156.694 18.724L157.758 20.992C157.384 21.328 156.75 21.6733 155.854 22.028C154.976 22.3827 153.968 22.56 152.83 22.56C150.552 22.56 148.882 21.9347 147.818 20.684C146.754 19.4147 146.222 17.6787 146.222 15.476C146.222 13.2733 146.828 11.4253 148.042 9.932C149.255 8.43867 150.954 7.692 153.138 7.692ZM151.85 14.104C152.54 13.9733 153.175 13.7027 153.754 13.292C154.332 12.8627 154.622 12.3587 154.622 11.78C154.622 10.6413 154.062 10.072 152.942 10.072C151.896 10.072 151.094 10.492 150.534 11.332C149.974 12.1533 149.666 13.1427 149.61 14.3C150.431 14.2813 151.178 14.216 151.85 14.104ZM169.976 21.664V19.536C168.949 20.992 167.437 21.72 165.44 21.72C162.547 21.72 161.1 20.1053 161.1 16.876V11.248C161.1 10.744 160.867 10.4827 160.4 10.464L159.504 10.408V8.112H164.432V16.148C164.432 17.1373 164.572 17.884 164.852 18.388C165.132 18.892 165.711 19.144 166.588 19.144C167.465 19.144 168.165 18.8733 168.688 18.332C169.229 17.7907 169.5 17.1373 169.5 16.372V11.304C169.5 10.9867 169.444 10.772 169.332 10.66C169.239 10.5293 169.061 10.464 168.8 10.464L167.904 10.408V8.112H172.832V21.664C172.832 23.9227 172.281 25.5747 171.18 26.62C170.097 27.6653 168.445 28.188 166.224 28.188C164.021 28.188 162.304 27.88 161.072 27.264V23.372L163.732 23.148V24.492C163.732 24.996 163.965 25.332 164.432 25.5C164.899 25.6867 165.543 25.78 166.364 25.78C168.772 25.78 169.976 24.408 169.976 21.664Z" fill="#68AEEE"/>
<path d="M85.6369 28.576H93.5329C97.5649 28.576 99.5809 30.1347 99.5809 33.252C99.5809 34.9693 98.7223 36.276 97.0049 37.172C98.1063 37.452 98.9649 37.9653 99.5809 38.712C100.216 39.4587 100.533 40.4293 100.533 41.624C100.533 43.4347 99.9169 44.816 98.6849 45.768C97.4716 46.72 95.6983 47.196 93.3649 47.196H85.4969V44.928L86.4209 44.844C86.9623 44.788 87.2329 44.5267 87.2329 44.06V31.04L85.6369 30.956V28.576ZM90.6489 38.712V44.564H93.2809C95.7076 44.564 96.9209 43.5747 96.9209 41.596C96.9209 40.6627 96.6129 39.9533 95.9969 39.468C95.3996 38.964 94.5409 38.712 93.4209 38.712H90.6489ZM90.6489 31.152V36.22H92.7209C93.8783 36.22 94.7276 35.9867 95.2689 35.52C95.8289 35.0347 96.1089 34.3627 96.1089 33.504C96.1089 32.6453 95.8289 32.0387 95.2689 31.684C94.7276 31.3293 93.9436 31.152 92.9169 31.152H90.6489ZM109.341 32.692C110.741 32.692 111.851 33.0373 112.673 33.728C113.494 34.4 113.905 35.352 113.905 36.584C113.905 37.4053 113.727 38.1333 113.373 38.768C113.018 39.384 112.579 39.8693 112.057 40.224C111.534 40.5787 110.899 40.868 110.153 41.092C108.902 41.4653 107.493 41.652 105.925 41.652C105.981 42.6413 106.289 43.444 106.849 44.06C107.409 44.6573 108.267 44.956 109.425 44.956C110.582 44.956 111.739 44.5453 112.897 43.724L113.961 45.992C113.587 46.328 112.953 46.6733 112.057 47.028C111.179 47.3827 110.171 47.56 109.033 47.56C106.755 47.56 105.085 46.9347 104.021 45.684C102.957 44.4147 102.425 42.6787 102.425 40.476C102.425 38.2733 103.031 36.4253 104.245 34.932C105.458 33.4387 107.157 32.692 109.341 32.692ZM108.053 39.104C108.743 38.9733 109.378 38.7027 109.957 38.292C110.535 37.8627 110.825 37.3587 110.825 36.78C110.825 35.6413 110.265 35.072 109.145 35.072C108.099 35.072 107.297 35.492 106.737 36.332C106.177 37.1533 105.869 38.1427 105.813 39.3C106.634 39.2813 107.381 39.216 108.053 39.104ZM115.707 35.352V33.112H120.439V34.932C120.925 34.2413 121.569 33.7 122.371 33.308C123.174 32.8973 124.042 32.692 124.975 32.692C126.394 32.692 127.486 33.1027 128.251 33.924C129.035 34.7267 129.427 35.94 129.427 37.564V44.872L131.023 44.956V47.196H124.359V45.068L125.283 44.984C125.563 44.9467 125.769 44.872 125.899 44.76C126.03 44.6293 126.095 44.396 126.095 44.06V38.292C126.095 37.2653 125.937 36.5093 125.619 36.024C125.302 35.52 124.695 35.268 123.799 35.268C122.922 35.268 122.222 35.548 121.699 36.108C121.177 36.668 120.915 37.3307 120.915 38.096V44.872L122.511 44.956V47.196H115.847V45.068L116.771 44.984C117.051 44.9467 117.257 44.872 117.387 44.76C117.518 44.6293 117.583 44.396 117.583 44.06V36.304C117.583 35.744 117.35 35.4547 116.883 35.436L115.707 35.352ZM140 35.24C139.552 35.072 139.011 34.988 138.376 34.988C137.742 34.988 137.228 35.1373 136.836 35.436C136.463 35.716 136.276 36.0707 136.276 36.5C136.276 36.9107 136.342 37.2373 136.472 37.48C136.622 37.704 136.846 37.9 137.144 38.068C137.611 38.3107 138.171 38.5253 138.824 38.712C139.478 38.88 139.963 39.02 140.28 39.132C140.598 39.2253 140.99 39.3933 141.456 39.636C141.942 39.8787 142.306 40.14 142.548 40.42C143.202 41.1107 143.528 41.9973 143.528 43.08C143.528 44.48 143.015 45.5813 141.988 46.384C140.98 47.168 139.692 47.56 138.124 47.56C135.847 47.56 134.13 47.2707 132.972 46.692V42.8L135.492 42.604V43.948C135.492 44.7693 136.276 45.18 137.844 45.18C139.412 45.18 140.196 44.6107 140.196 43.472C140.196 43.0613 140.056 42.7253 139.776 42.464C139.515 42.2027 139.254 42.0253 138.992 41.932C138.731 41.8387 138.414 41.7453 138.04 41.652C137.686 41.5587 137.331 41.4653 136.976 41.372C136.64 41.2787 136.267 41.1573 135.856 41.008C135.464 40.84 135.026 40.6067 134.54 40.308C133.588 39.692 133.112 38.6653 133.112 37.228C133.112 35.772 133.626 34.652 134.652 33.868C135.679 33.084 136.967 32.692 138.516 32.692C140.084 32.692 141.634 33.0653 143.164 33.812V37.172L140.644 37.368V36.192C140.644 35.7253 140.43 35.408 140 35.24ZM151.737 45.152C153.772 45.152 154.789 43.5093 154.789 40.224C154.789 38.5627 154.556 37.3027 154.089 36.444C153.641 35.5853 152.876 35.156 151.793 35.156C150.729 35.156 149.945 35.5667 149.441 36.388C148.937 37.2093 148.685 38.3293 148.685 39.748C148.685 42.38 149.17 44.032 150.141 44.704C150.57 45.0027 151.102 45.152 151.737 45.152ZM145.297 40.14C145.297 38.7587 145.502 37.564 145.913 36.556C146.324 35.5293 146.874 34.7453 147.565 34.204C148.89 33.196 150.356 32.692 151.961 32.692C153.081 32.692 154.024 32.8787 154.789 33.252C155.573 33.6067 156.18 34.0267 156.609 34.512C157.057 34.9787 157.43 35.6693 157.729 36.584C158.046 37.48 158.205 38.544 158.205 39.776C158.205 42.352 157.58 44.3027 156.329 45.628C155.078 46.9533 153.473 47.616 151.513 47.616C149.572 47.616 148.05 46.9907 146.949 45.74C145.848 44.4707 145.297 42.604 145.297 40.14ZM159.922 35.352V33.112H164.654V34.932C165.139 34.2413 165.783 33.7 166.586 33.308C167.389 32.8973 168.257 32.692 169.19 32.692C170.609 32.692 171.701 33.1027 172.466 33.924C173.25 34.7267 173.642 35.94 173.642 37.564V44.872L175.238 44.956V47.196H168.574V45.068L169.498 44.984C169.778 44.9467 169.983 44.872 170.114 44.76C170.245 44.6293 170.31 44.396 170.31 44.06V38.292C170.31 37.2653 170.151 36.5093 169.834 36.024C169.517 35.52 168.91 35.268 168.014 35.268C167.137 35.268 166.437 35.548 165.914 36.108C165.391 36.668 165.13 37.3307 165.13 38.096V44.872L166.726 44.956V47.196H160.062V45.068L160.986 44.984C161.266 44.9467 161.471 44.872 161.602 44.76C161.733 44.6293 161.798 44.396 161.798 44.06V36.304C161.798 35.744 161.565 35.4547 161.098 35.436L159.922 35.352Z" fill="#091117"/>
<path d="M85.438 63.5V55.34H86.386V63.5H85.438ZM89.4018 58.52C89.6498 58.24 89.9698 58.004 90.3618 57.812C90.7538 57.612 91.1218 57.512 91.4658 57.512C92.1298 57.512 92.6218 57.708 92.9418 58.1C93.2618 58.484 93.4218 58.968 93.4218 59.552V63.488H92.4738V59.684C92.4738 59.292 92.3778 58.968 92.1858 58.712C91.9938 58.456 91.6978 58.324 91.2978 58.316C91.0498 58.316 90.7458 58.4 90.3858 58.568C90.0338 58.736 89.7298 58.968 89.4738 59.264V63.5H88.5258V57.68H89.1018L89.4018 58.52ZM98.541 58.736C98.349 58.64 98.129 58.548 97.881 58.46C97.633 58.372 97.337 58.328 96.993 58.328C96.641 58.328 96.357 58.4 96.141 58.544C95.933 58.688 95.829 58.884 95.829 59.132C95.829 59.356 95.949 59.548 96.189 59.708C96.437 59.86 96.753 60 97.137 60.128C97.609 60.296 98.049 60.524 98.457 60.812C98.873 61.1 99.081 61.484 99.081 61.964C99.081 62.492 98.881 62.908 98.481 63.212C98.089 63.508 97.513 63.656 96.753 63.656C96.505 63.656 96.193 63.612 95.817 63.524C95.441 63.444 95.133 63.324 94.893 63.164L95.181 62.444C95.405 62.556 95.653 62.652 95.925 62.732C96.205 62.812 96.485 62.852 96.765 62.852C97.197 62.852 97.533 62.784 97.773 62.648C98.013 62.512 98.133 62.304 98.133 62.024C98.133 61.776 98.001 61.56 97.737 61.376C97.473 61.184 97.145 61.024 96.753 60.896C96.297 60.744 95.865 60.536 95.457 60.272C95.057 60 94.857 59.636 94.857 59.18C94.857 58.66 95.049 58.256 95.433 57.968C95.825 57.672 96.353 57.524 97.017 57.524C97.265 57.524 97.573 57.572 97.941 57.668C98.309 57.756 98.605 57.88 98.829 58.04L98.541 58.736ZM104.352 62.864C104.096 63.096 103.8 63.288 103.464 63.44C103.128 63.592 102.804 63.668 102.492 63.668C101.812 63.668 101.312 63.476 100.992 63.092C100.68 62.7 100.524 62.208 100.524 61.616V57.68H101.472V61.508C101.472 61.9 101.568 62.224 101.76 62.48C101.952 62.736 102.244 62.864 102.636 62.864C102.86 62.864 103.124 62.8 103.428 62.672C103.732 62.544 104.012 62.364 104.268 62.132V57.68H105.216V63.5H104.628L104.352 62.864ZM107.088 63.5V57.68H107.664L107.952 58.496C108.168 58.312 108.444 58.132 108.78 57.956C109.124 57.772 109.452 57.68 109.764 57.68C109.796 57.808 109.832 57.936 109.872 58.064C109.912 58.184 109.952 58.308 109.992 58.436C109.648 58.436 109.3 58.532 108.948 58.724C108.596 58.908 108.292 59.128 108.036 59.384V63.5H107.088ZM111.601 61.844C111.601 62.092 111.685 62.328 111.853 62.552C112.029 62.776 112.309 62.888 112.693 62.888C113.029 62.888 113.337 62.804 113.617 62.636C113.897 62.468 114.137 62.268 114.337 62.036V60.704H112.801C112.409 60.704 112.109 60.82 111.901 61.052C111.701 61.276 111.601 61.54 111.601 61.844ZM111.097 58.04C111.321 57.888 111.637 57.764 112.045 57.668C112.453 57.572 112.777 57.524 113.017 57.524C113.689 57.524 114.233 57.708 114.649 58.076C115.073 58.436 115.285 58.908 115.285 59.492V63.5H114.709L114.457 62.912C114.257 63.096 113.997 63.264 113.677 63.416C113.357 63.568 113.037 63.644 112.717 63.644C112.045 63.644 111.545 63.476 111.217 63.14C110.889 62.796 110.725 62.364 110.725 61.844C110.725 61.268 110.917 60.832 111.301 60.536C111.693 60.232 112.201 60.08 112.825 60.08H114.325C114.325 59.6 114.249 59.192 114.097 58.856C113.945 58.52 113.597 58.352 113.053 58.352C112.661 58.352 112.337 58.396 112.081 58.484C111.825 58.572 111.589 58.664 111.373 58.76C111.333 58.64 111.289 58.52 111.241 58.4C111.193 58.28 111.145 58.16 111.097 58.04ZM117.972 58.52C118.22 58.24 118.54 58.004 118.932 57.812C119.324 57.612 119.692 57.512 120.036 57.512C120.7 57.512 121.192 57.708 121.512 58.1C121.832 58.484 121.992 58.968 121.992 59.552V63.488H121.044V59.684C121.044 59.292 120.948 58.968 120.756 58.712C120.564 58.456 120.268 58.324 119.868 58.316C119.62 58.316 119.316 58.4 118.956 58.568C118.604 58.736 118.3 58.968 118.044 59.264V63.5H117.096V57.68H117.672L117.972 58.52ZM126.163 58.328C125.571 58.328 125.135 58.544 124.855 58.976C124.575 59.4 124.431 59.928 124.423 60.56C124.423 61.216 124.555 61.764 124.819 62.204C125.083 62.636 125.515 62.852 126.115 62.852C126.507 62.852 126.803 62.812 127.003 62.732C127.203 62.652 127.415 62.556 127.639 62.444L127.927 63.14C127.679 63.3 127.379 63.424 127.027 63.512C126.675 63.608 126.375 63.656 126.127 63.656C125.247 63.656 124.579 63.368 124.123 62.792C123.675 62.216 123.451 61.476 123.451 60.572C123.459 59.684 123.695 58.956 124.159 58.388C124.631 57.812 125.307 57.524 126.187 57.524C126.419 57.524 126.711 57.572 127.063 57.668C127.423 57.756 127.727 57.884 127.975 58.052L127.687 58.736C127.463 58.632 127.247 58.54 127.039 58.46C126.839 58.372 126.547 58.328 126.163 58.328ZM134.284 60.74H130.06C130.084 61.356 130.248 61.868 130.552 62.276C130.856 62.676 131.336 62.876 131.992 62.876C132.384 62.876 132.7 62.836 132.94 62.756C133.188 62.668 133.424 62.572 133.648 62.468L133.948 63.164C133.7 63.332 133.376 63.452 132.976 63.524C132.576 63.604 132.256 63.644 132.016 63.644C131.048 63.644 130.316 63.36 129.82 62.792C129.324 62.216 129.076 61.476 129.076 60.572C129.084 59.692 129.32 58.964 129.784 58.388C130.256 57.812 130.924 57.524 131.788 57.524C132.692 57.524 133.332 57.844 133.708 58.484C134.092 59.116 134.284 59.868 134.284 60.74ZM133.348 60.092C133.284 59.572 133.128 59.148 132.88 58.82C132.632 58.492 132.256 58.328 131.752 58.328C131.248 58.328 130.856 58.492 130.576 58.82C130.304 59.148 130.14 59.572 130.084 60.092H133.348ZM141.204 56.6L139.776 60.416H142.68L141.204 56.6ZM141.672 55.34L144.804 63.356L143.856 63.5L142.956 61.184H139.512L138.66 63.5H137.736L140.748 55.34H141.672ZM149.599 58.952C149.375 58.752 149.131 58.596 148.867 58.484C148.611 58.372 148.371 58.316 148.147 58.316C147.523 58.316 147.079 58.54 146.815 58.988C146.559 59.428 146.431 59.96 146.431 60.584C146.431 61.232 146.555 61.772 146.803 62.204C147.059 62.636 147.507 62.852 148.147 62.852C148.371 62.852 148.611 62.796 148.867 62.684C149.131 62.572 149.375 62.416 149.599 62.216V58.952ZM150.559 63.968C150.559 64.576 150.347 65.084 149.923 65.492C149.507 65.9 148.883 66.104 148.051 66.104C147.811 66.104 147.487 66.056 147.079 65.96C146.671 65.872 146.343 65.74 146.095 65.564L146.383 64.88C146.623 64.984 146.859 65.084 147.091 65.18C147.331 65.276 147.643 65.324 148.027 65.324C148.507 65.324 148.887 65.208 149.167 64.976C149.455 64.752 149.599 64.412 149.599 63.956V63.068C149.367 63.244 149.103 63.384 148.807 63.488C148.519 63.592 148.247 63.644 147.991 63.644C147.143 63.644 146.507 63.36 146.083 62.792C145.667 62.216 145.459 61.484 145.459 60.596C145.459 59.708 145.671 58.972 146.095 58.388C146.527 57.804 147.167 57.512 148.015 57.512C148.295 57.512 148.591 57.58 148.903 57.716C149.215 57.844 149.495 58.008 149.743 58.208C149.783 58.128 149.823 58.044 149.863 57.956C149.903 57.86 149.943 57.768 149.983 57.68H150.559V63.968ZM157.312 60.74H153.088C153.112 61.356 153.276 61.868 153.58 62.276C153.884 62.676 154.364 62.876 155.02 62.876C155.412 62.876 155.728 62.836 155.968 62.756C156.216 62.668 156.452 62.572 156.676 62.468L156.976 63.164C156.728 63.332 156.404 63.452 156.004 63.524C155.604 63.604 155.284 63.644 155.044 63.644C154.076 63.644 153.344 63.36 152.848 62.792C152.352 62.216 152.104 61.476 152.104 60.572C152.112 59.692 152.348 58.964 152.812 58.388C153.284 57.812 153.952 57.524 154.816 57.524C155.72 57.524 156.36 57.844 156.736 58.484C157.12 59.116 157.312 59.868 157.312 60.74ZM156.376 60.092C156.312 59.572 156.156 59.148 155.908 58.82C155.66 58.492 155.284 58.328 154.78 58.328C154.276 58.328 153.884 58.492 153.604 58.82C153.332 59.148 153.168 59.572 153.112 60.092H156.376ZM159.667 58.52C159.915 58.24 160.235 58.004 160.627 57.812C161.019 57.612 161.387 57.512 161.731 57.512C162.395 57.512 162.887 57.708 163.207 58.1C163.527 58.484 163.687 58.968 163.687 59.552V63.488H162.739V59.684C162.739 59.292 162.643 58.968 162.451 58.712C162.259 58.456 161.963 58.324 161.563 58.316C161.315 58.316 161.011 58.4 160.651 58.568C160.299 58.736 159.995 58.968 159.739 59.264V63.5H158.791V57.68H159.367L159.667 58.52ZM168.135 63.476C168.047 63.516 167.919 63.56 167.751 63.608C167.591 63.656 167.423 63.68 167.247 63.68C166.751 63.68 166.351 63.536 166.047 63.248C165.751 62.96 165.603 62.54 165.603 61.988V58.496H164.775L164.763 57.776H165.603V56.3L166.563 56.024V57.776H167.619L167.931 58.496H166.563V61.856C166.563 62.152 166.627 62.396 166.755 62.588C166.883 62.772 167.095 62.864 167.391 62.864C167.479 62.864 167.575 62.852 167.679 62.828C167.783 62.796 167.863 62.768 167.919 62.744L168.135 63.476Z" fill="#091117"/>
</svg>
