<svg width="177" height="67" viewBox="0 0 177 67" fill="none" xmlns="http://www.w3.org/2000/svg">
<rect width="67" height="67" rx="16" fill="#BAD6F7"/>
<path d="M23.3073 12H40.6369C49.486 12 53.9106 15.5995 53.9106 22.7985C53.9106 26.7644 52.026 29.782 48.257 31.8511C50.6741 32.4977 52.5587 33.6832 53.9106 35.4075C55.3036 37.1319 56 39.3734 56 42.1323C56 46.3138 54.648 49.5038 51.9441 51.7023C49.2812 53.9008 45.3892 55 40.2682 55H23V49.7624L25.0279 49.5684C26.216 49.4391 26.8101 48.8356 26.8101 47.7579V17.6902L23.3073 17.4962V12ZM34.3073 35.4075V48.9218H40.0838C45.4097 48.9218 48.0726 46.6371 48.0726 42.0677C48.0726 39.9123 47.3966 38.2742 46.0447 37.1534C44.7337 35.9895 42.8492 35.4075 40.3911 35.4075H34.3073ZM34.3073 17.9489V29.6526H38.8547C41.3948 29.6526 43.2589 29.1138 44.4469 28.0361C45.676 26.9153 46.2905 25.3634 46.2905 23.3805C46.2905 21.3975 45.676 19.9965 44.4469 19.1774C43.2589 18.3584 41.5382 17.9489 39.2849 17.9489H34.3073Z" fill="white"/>
<path d="M34.36 45.984C33.6347 52.256 29.432 55.392 21.752 55.392C17.7413 55.392 14.1573 54.496 11 52.704V41.504L17.528 41.056V46.112C17.528 46.752 17.6133 47.2213 17.784 47.52C17.9547 47.8187 18.4027 48.1173 19.128 48.416C19.8533 48.672 20.9627 48.8 22.456 48.8C23.992 48.8 25.1013 48.352 25.784 47.456C26.4667 46.5173 26.808 45.024 26.808 42.976V17.696L21.816 17.44V12H34.616V18V39.264C34.616 42.2933 34.5307 44.5333 34.36 45.984Z" fill="#13222F"/>
<path d="M95.7052 18.4438C95.3878 21.1878 93.5492 22.5598 90.1892 22.5598C88.4345 22.5598 86.8665 22.1678 85.4852 21.3838V16.4838L88.3412 16.2878V18.4998C88.3412 18.7798 88.3785 18.9851 88.4532 19.1158C88.5278 19.2465 88.7238 19.3771 89.0412 19.5078C89.3585 19.6198 89.8438 19.6758 90.4972 19.6758C91.1692 19.6758 91.6545 19.4798 91.9532 19.0878C92.2518 18.6771 92.4012 18.0238 92.4012 17.1278V6.0678L90.2172 5.9558V3.5758H97.5532V5.8438L96.6292 5.9278C96.0878 5.9838 95.8172 6.27313 95.8172 6.7958V15.5038C95.8172 16.8291 95.7798 17.8091 95.7052 18.4438ZM105.915 7.6918C107.315 7.6918 108.426 8.03713 109.247 8.7278C110.068 9.3998 110.479 10.3518 110.479 11.5838C110.479 12.4051 110.302 13.1331 109.947 13.7678C109.592 14.3838 109.154 14.8691 108.631 15.2238C108.108 15.5785 107.474 15.8678 106.727 16.0918C105.476 16.4651 104.067 16.6518 102.499 16.6518C102.555 17.6411 102.863 18.4438 103.423 19.0598C103.983 19.6571 104.842 19.9558 105.999 19.9558C107.156 19.9558 108.314 19.5451 109.471 18.7238L110.535 20.9918C110.162 21.3278 109.527 21.6731 108.631 22.0278C107.754 22.3825 106.746 22.5598 105.607 22.5598C103.33 22.5598 101.659 21.9345 100.595 20.6838C99.5309 19.4145 98.9989 17.6785 98.9989 15.4758C98.9989 13.2731 99.6056 11.4251 100.819 9.9318C102.032 8.43847 103.731 7.6918 105.915 7.6918ZM104.627 14.1038C105.318 13.9731 105.952 13.7025 106.531 13.2918C107.11 12.8625 107.399 12.3585 107.399 11.7798C107.399 10.6411 106.839 10.0718 105.719 10.0718C104.674 10.0718 103.871 10.4918 103.311 11.3318C102.751 12.1531 102.443 13.1425 102.387 14.2998C103.208 14.2811 103.955 14.2158 104.627 14.1038ZM114.213 19.0598V10.4638H111.805V8.1118H114.213V7.0478C114.213 5.21847 114.633 3.90247 115.473 3.0998C116.257 2.33447 117.405 1.9518 118.917 1.9518C120.429 1.9518 121.773 2.27847 122.949 2.9318L122.137 5.1718C121.241 4.70513 120.401 4.4718 119.617 4.4718C118.833 4.4718 118.292 4.6678 117.993 5.0598C117.695 5.43313 117.545 6.0118 117.545 6.7958V8.1118H121.689V10.4638H117.545V19.8438L119.897 19.9558V22.1958H112.477V20.0678L113.401 19.9838C113.681 19.9465 113.887 19.8718 114.017 19.7598C114.148 19.6291 114.213 19.3958 114.213 19.0598ZM124.577 19.0598V10.4638H122.169V8.1118H124.577V7.0478C124.577 5.21847 124.997 3.90247 125.837 3.0998C126.621 2.33447 127.769 1.9518 129.281 1.9518C130.793 1.9518 132.137 2.27847 133.313 2.9318L132.501 5.1718C131.605 4.70513 130.765 4.4718 129.981 4.4718C129.197 4.4718 128.655 4.6678 128.357 5.0598C128.058 5.43313 127.909 6.0118 127.909 6.7958V8.1118H132.053V10.4638H127.909V19.8438L130.261 19.9558V22.1958H122.841V20.0678L123.765 19.9838C124.045 19.9465 124.25 19.8718 124.381 19.7598C124.511 19.6291 124.577 19.3958 124.577 19.0598ZM134.912 19.0598V11.3038C134.912 11.0051 134.856 10.7998 134.744 10.6878C134.651 10.5571 134.473 10.4825 134.212 10.4638L133.036 10.3798V8.1118H137.768V10.2118C138.104 9.4838 138.627 8.88647 139.336 8.4198C140.045 7.93447 140.857 7.6918 141.772 7.6918C142.705 7.6918 143.592 7.89713 144.432 8.3078V12.4798L141.828 12.6758V11.3878C141.828 11.0145 141.735 10.7811 141.548 10.6878C141.343 10.5945 141.091 10.5478 140.792 10.5478C140.045 10.5478 139.429 10.8185 138.944 11.3598C138.477 11.8825 138.244 12.5545 138.244 13.3758V19.8718L140.68 19.9838V22.1958H133.176V20.0678L134.1 19.9838C134.38 19.9465 134.585 19.8718 134.716 19.7598C134.847 19.6291 134.912 19.3958 134.912 19.0598ZM153.138 7.6918C154.538 7.6918 155.648 8.03713 156.47 8.7278C157.291 9.3998 157.702 10.3518 157.702 11.5838C157.702 12.4051 157.524 13.1331 157.17 13.7678C156.815 14.3838 156.376 14.8691 155.854 15.2238C155.331 15.5785 154.696 15.8678 153.95 16.0918C152.699 16.4651 151.29 16.6518 149.722 16.6518C149.778 17.6411 150.086 18.4438 150.646 19.0598C151.206 19.6571 152.064 19.9558 153.222 19.9558C154.379 19.9558 155.536 19.5451 156.694 18.7238L157.758 20.9918C157.384 21.3278 156.75 21.6731 155.854 22.0278C154.976 22.3825 153.968 22.5598 152.83 22.5598C150.552 22.5598 148.882 21.9345 147.818 20.6838C146.754 19.4145 146.222 17.6785 146.222 15.4758C146.222 13.2731 146.828 11.4251 148.042 9.9318C149.255 8.43847 150.954 7.6918 153.138 7.6918ZM151.85 14.1038C152.54 13.9731 153.175 13.7025 153.754 13.2918C154.332 12.8625 154.622 12.3585 154.622 11.7798C154.622 10.6411 154.062 10.0718 152.942 10.0718C151.896 10.0718 151.094 10.4918 150.534 11.3318C149.974 12.1531 149.666 13.1425 149.61 14.2998C150.431 14.2811 151.178 14.2158 151.85 14.1038ZM169.976 21.6638V19.5358C168.949 20.9918 167.437 21.7198 165.44 21.7198C162.547 21.7198 161.1 20.1051 161.1 16.8758V11.2478C161.1 10.7438 160.867 10.4825 160.4 10.4638L159.504 10.4078V8.1118H164.432V16.1478C164.432 17.1371 164.572 17.8838 164.852 18.3878C165.132 18.8918 165.711 19.1438 166.588 19.1438C167.465 19.1438 168.165 18.8731 168.688 18.3318C169.229 17.7905 169.5 17.1371 169.5 16.3718V11.3038C169.5 10.9865 169.444 10.7718 169.332 10.6598C169.239 10.5291 169.061 10.4638 168.8 10.4638L167.904 10.4078V8.1118H172.832V21.6638C172.832 23.9225 172.281 25.5745 171.18 26.6198C170.097 27.6651 168.445 28.1878 166.224 28.1878C164.021 28.1878 162.304 27.8798 161.072 27.2638V23.3718L163.732 23.1478V24.4918C163.732 24.9958 163.965 25.3318 164.432 25.4998C164.899 25.6865 165.543 25.7798 166.364 25.7798C168.772 25.7798 169.976 24.4078 169.976 21.6638Z" fill="white"/>
<path d="M85.6369 28.5758H93.5329C97.5649 28.5758 99.5809 30.1345 99.5809 33.2518C99.5809 34.9691 98.7223 36.2758 97.0049 37.1718C98.1063 37.4518 98.9649 37.9651 99.5809 38.7118C100.216 39.4585 100.533 40.4291 100.533 41.6238C100.533 43.4345 99.9169 44.8158 98.6849 45.7678C97.4716 46.7198 95.6983 47.1958 93.3649 47.1958H85.4969V44.9278L86.4209 44.8438C86.9623 44.7878 87.2329 44.5265 87.2329 44.0598V31.0398L85.6369 30.9558V28.5758ZM90.6489 38.7118V44.5638H93.2809C95.7076 44.5638 96.9209 43.5745 96.9209 41.5958C96.9209 40.6625 96.6129 39.9531 95.9969 39.4678C95.3996 38.9638 94.5409 38.7118 93.4209 38.7118H90.6489ZM90.6489 31.1518V36.2198H92.7209C93.8783 36.2198 94.7276 35.9865 95.2689 35.5198C95.8289 35.0345 96.1089 34.3625 96.1089 33.5038C96.1089 32.6451 95.8289 32.0385 95.2689 31.6838C94.7276 31.3291 93.9436 31.1518 92.9169 31.1518H90.6489ZM109.341 32.6918C110.741 32.6918 111.851 33.0371 112.673 33.7278C113.494 34.3998 113.905 35.3518 113.905 36.5838C113.905 37.4051 113.727 38.1331 113.373 38.7678C113.018 39.3838 112.579 39.8691 112.057 40.2238C111.534 40.5785 110.899 40.8678 110.153 41.0918C108.902 41.4651 107.493 41.6518 105.925 41.6518C105.981 42.6411 106.289 43.4438 106.849 44.0598C107.409 44.6571 108.267 44.9558 109.425 44.9558C110.582 44.9558 111.739 44.5451 112.897 43.7238L113.961 45.9918C113.587 46.3278 112.953 46.6731 112.057 47.0278C111.179 47.3825 110.171 47.5598 109.033 47.5598C106.755 47.5598 105.085 46.9345 104.021 45.6838C102.957 44.4145 102.425 42.6785 102.425 40.4758C102.425 38.2731 103.031 36.4251 104.245 34.9318C105.458 33.4385 107.157 32.6918 109.341 32.6918ZM108.053 39.1038C108.743 38.9731 109.378 38.7025 109.957 38.2918C110.535 37.8625 110.825 37.3585 110.825 36.7798C110.825 35.6411 110.265 35.0718 109.145 35.0718C108.099 35.0718 107.297 35.4918 106.737 36.3318C106.177 37.1531 105.869 38.1425 105.813 39.2998C106.634 39.2811 107.381 39.2158 108.053 39.1038ZM115.707 35.3518V33.1118H120.439V34.9318C120.925 34.2411 121.569 33.6998 122.371 33.3078C123.174 32.8971 124.042 32.6918 124.975 32.6918C126.394 32.6918 127.486 33.1025 128.251 33.9238C129.035 34.7265 129.427 35.9398 129.427 37.5638V44.8718L131.023 44.9558V47.1958H124.359V45.0678L125.283 44.9838C125.563 44.9465 125.769 44.8718 125.899 44.7598C126.03 44.6291 126.095 44.3958 126.095 44.0598V38.2918C126.095 37.2651 125.937 36.5091 125.619 36.0238C125.302 35.5198 124.695 35.2678 123.799 35.2678C122.922 35.2678 122.222 35.5478 121.699 36.1078C121.177 36.6678 120.915 37.3305 120.915 38.0958V44.8718L122.511 44.9558V47.1958H115.847V45.0678L116.771 44.9838C117.051 44.9465 117.257 44.8718 117.387 44.7598C117.518 44.6291 117.583 44.3958 117.583 44.0598V36.3038C117.583 35.7438 117.35 35.4545 116.883 35.4358L115.707 35.3518ZM140 35.2398C139.552 35.0718 139.011 34.9878 138.376 34.9878C137.742 34.9878 137.228 35.1371 136.836 35.4358C136.463 35.7158 136.276 36.0705 136.276 36.4998C136.276 36.9105 136.342 37.2371 136.472 37.4798C136.622 37.7038 136.846 37.8998 137.144 38.0678C137.611 38.3105 138.171 38.5251 138.824 38.7118C139.478 38.8798 139.963 39.0198 140.28 39.1318C140.598 39.2251 140.99 39.3931 141.456 39.6358C141.942 39.8785 142.306 40.1398 142.548 40.4198C143.202 41.1105 143.528 41.9971 143.528 43.0798C143.528 44.4798 143.015 45.5811 141.988 46.3838C140.98 47.1678 139.692 47.5598 138.124 47.5598C135.847 47.5598 134.13 47.2705 132.972 46.6918V42.7998L135.492 42.6038V43.9478C135.492 44.7691 136.276 45.1798 137.844 45.1798C139.412 45.1798 140.196 44.6105 140.196 43.4718C140.196 43.0611 140.056 42.7251 139.776 42.4638C139.515 42.2025 139.254 42.0251 138.992 41.9318C138.731 41.8385 138.414 41.7451 138.04 41.6518C137.686 41.5585 137.331 41.4651 136.976 41.3718C136.64 41.2785 136.267 41.1571 135.856 41.0078C135.464 40.8398 135.026 40.6065 134.54 40.3078C133.588 39.6918 133.112 38.6651 133.112 37.2278C133.112 35.7718 133.626 34.6518 134.652 33.8678C135.679 33.0838 136.967 32.6918 138.516 32.6918C140.084 32.6918 141.634 33.0651 143.164 33.8118V37.1718L140.644 37.3678V36.1918C140.644 35.7251 140.43 35.4078 140 35.2398ZM151.737 45.1518C153.772 45.1518 154.789 43.5091 154.789 40.2238C154.789 38.5625 154.556 37.3025 154.089 36.4438C153.641 35.5851 152.876 35.1558 151.793 35.1558C150.729 35.1558 149.945 35.5665 149.441 36.3878C148.937 37.2091 148.685 38.3291 148.685 39.7478C148.685 42.3798 149.17 44.0318 150.141 44.7038C150.57 45.0025 151.102 45.1518 151.737 45.1518ZM145.297 40.1398C145.297 38.7585 145.502 37.5638 145.913 36.5558C146.324 35.5291 146.874 34.7451 147.565 34.2038C148.89 33.1958 150.356 32.6918 151.961 32.6918C153.081 32.6918 154.024 32.8785 154.789 33.2518C155.573 33.6065 156.18 34.0265 156.609 34.5118C157.057 34.9785 157.43 35.6691 157.729 36.5838C158.046 37.4798 158.205 38.5438 158.205 39.7758C158.205 42.3518 157.58 44.3025 156.329 45.6278C155.078 46.9531 153.473 47.6158 151.513 47.6158C149.572 47.6158 148.05 46.9905 146.949 45.7398C145.848 44.4705 145.297 42.6038 145.297 40.1398ZM159.922 35.3518V33.1118H164.654V34.9318C165.139 34.2411 165.783 33.6998 166.586 33.3078C167.389 32.8971 168.257 32.6918 169.19 32.6918C170.609 32.6918 171.701 33.1025 172.466 33.9238C173.25 34.7265 173.642 35.9398 173.642 37.5638V44.8718L175.238 44.9558V47.1958H168.574V45.0678L169.498 44.9838C169.778 44.9465 169.983 44.8718 170.114 44.7598C170.245 44.6291 170.31 44.3958 170.31 44.0598V38.2918C170.31 37.2651 170.151 36.5091 169.834 36.0238C169.517 35.5198 168.91 35.2678 168.014 35.2678C167.137 35.2678 166.437 35.5478 165.914 36.1078C165.391 36.6678 165.13 37.3305 165.13 38.0958V44.8718L166.726 44.9558V47.1958H160.062V45.0678L160.986 44.9838C161.266 44.9465 161.471 44.8718 161.602 44.7598C161.733 44.6291 161.798 44.3958 161.798 44.0598V36.3038C161.798 35.7438 161.565 35.4545 161.098 35.4358L159.922 35.3518Z" fill="white"/>
<path d="M85.438 63.5V55.34H86.386V63.5H85.438ZM89.4018 58.52C89.6498 58.24 89.9698 58.004 90.3618 57.812C90.7538 57.612 91.1218 57.512 91.4658 57.512C92.1298 57.512 92.6218 57.708 92.9418 58.1C93.2618 58.484 93.4218 58.968 93.4218 59.552V63.488H92.4738V59.684C92.4738 59.292 92.3778 58.968 92.1858 58.712C91.9938 58.456 91.6978 58.324 91.2978 58.316C91.0498 58.316 90.7458 58.4 90.3858 58.568C90.0338 58.736 89.7298 58.968 89.4738 59.264V63.5H88.5258V57.68H89.1018L89.4018 58.52ZM98.541 58.736C98.349 58.64 98.129 58.548 97.881 58.46C97.633 58.372 97.337 58.328 96.993 58.328C96.641 58.328 96.357 58.4 96.141 58.544C95.933 58.688 95.829 58.884 95.829 59.132C95.829 59.356 95.949 59.548 96.189 59.708C96.437 59.86 96.753 60 97.137 60.128C97.609 60.296 98.049 60.524 98.457 60.812C98.873 61.1 99.081 61.484 99.081 61.964C99.081 62.492 98.881 62.908 98.481 63.212C98.089 63.508 97.513 63.656 96.753 63.656C96.505 63.656 96.193 63.612 95.817 63.524C95.441 63.444 95.133 63.324 94.893 63.164L95.181 62.444C95.405 62.556 95.653 62.652 95.925 62.732C96.205 62.812 96.485 62.852 96.765 62.852C97.197 62.852 97.533 62.784 97.773 62.648C98.013 62.512 98.133 62.304 98.133 62.024C98.133 61.776 98.001 61.56 97.737 61.376C97.473 61.184 97.145 61.024 96.753 60.896C96.297 60.744 95.865 60.536 95.457 60.272C95.057 60 94.857 59.636 94.857 59.18C94.857 58.66 95.049 58.256 95.433 57.968C95.825 57.672 96.353 57.524 97.017 57.524C97.265 57.524 97.573 57.572 97.941 57.668C98.309 57.756 98.605 57.88 98.829 58.04L98.541 58.736ZM104.352 62.864C104.096 63.096 103.8 63.288 103.464 63.44C103.128 63.592 102.804 63.668 102.492 63.668C101.812 63.668 101.312 63.476 100.992 63.092C100.68 62.7 100.524 62.208 100.524 61.616V57.68H101.472V61.508C101.472 61.9 101.568 62.224 101.76 62.48C101.952 62.736 102.244 62.864 102.636 62.864C102.86 62.864 103.124 62.8 103.428 62.672C103.732 62.544 104.012 62.364 104.268 62.132V57.68H105.216V63.5H104.628L104.352 62.864ZM107.088 63.5V57.68H107.664L107.952 58.496C108.168 58.312 108.444 58.132 108.78 57.956C109.124 57.772 109.452 57.68 109.764 57.68C109.796 57.808 109.832 57.936 109.872 58.064C109.912 58.184 109.952 58.308 109.992 58.436C109.648 58.436 109.3 58.532 108.948 58.724C108.596 58.908 108.292 59.128 108.036 59.384V63.5H107.088ZM111.601 61.844C111.601 62.092 111.685 62.328 111.853 62.552C112.029 62.776 112.309 62.888 112.693 62.888C113.029 62.888 113.337 62.804 113.617 62.636C113.897 62.468 114.137 62.268 114.337 62.036V60.704H112.801C112.409 60.704 112.109 60.82 111.901 61.052C111.701 61.276 111.601 61.54 111.601 61.844ZM111.097 58.04C111.321 57.888 111.637 57.764 112.045 57.668C112.453 57.572 112.777 57.524 113.017 57.524C113.689 57.524 114.233 57.708 114.649 58.076C115.073 58.436 115.285 58.908 115.285 59.492V63.5H114.709L114.457 62.912C114.257 63.096 113.997 63.264 113.677 63.416C113.357 63.568 113.037 63.644 112.717 63.644C112.045 63.644 111.545 63.476 111.217 63.14C110.889 62.796 110.725 62.364 110.725 61.844C110.725 61.268 110.917 60.832 111.301 60.536C111.693 60.232 112.201 60.08 112.825 60.08H114.325C114.325 59.6 114.249 59.192 114.097 58.856C113.945 58.52 113.597 58.352 113.053 58.352C112.661 58.352 112.337 58.396 112.081 58.484C111.825 58.572 111.589 58.664 111.373 58.76C111.333 58.64 111.289 58.52 111.241 58.4C111.193 58.28 111.145 58.16 111.097 58.04ZM117.972 58.52C118.22 58.24 118.54 58.004 118.932 57.812C119.324 57.612 119.692 57.512 120.036 57.512C120.7 57.512 121.192 57.708 121.512 58.1C121.832 58.484 121.992 58.968 121.992 59.552V63.488H121.044V59.684C121.044 59.292 120.948 58.968 120.756 58.712C120.564 58.456 120.268 58.324 119.868 58.316C119.62 58.316 119.316 58.4 118.956 58.568C118.604 58.736 118.3 58.968 118.044 59.264V63.5H117.096V57.68H117.672L117.972 58.52ZM126.163 58.328C125.571 58.328 125.135 58.544 124.855 58.976C124.575 59.4 124.431 59.928 124.423 60.56C124.423 61.216 124.555 61.764 124.819 62.204C125.083 62.636 125.515 62.852 126.115 62.852C126.507 62.852 126.803 62.812 127.003 62.732C127.203 62.652 127.415 62.556 127.639 62.444L127.927 63.14C127.679 63.3 127.379 63.424 127.027 63.512C126.675 63.608 126.375 63.656 126.127 63.656C125.247 63.656 124.579 63.368 124.123 62.792C123.675 62.216 123.451 61.476 123.451 60.572C123.459 59.684 123.695 58.956 124.159 58.388C124.631 57.812 125.307 57.524 126.187 57.524C126.419 57.524 126.711 57.572 127.063 57.668C127.423 57.756 127.727 57.884 127.975 58.052L127.687 58.736C127.463 58.632 127.247 58.54 127.039 58.46C126.839 58.372 126.547 58.328 126.163 58.328ZM134.284 60.74H130.06C130.084 61.356 130.248 61.868 130.552 62.276C130.856 62.676 131.336 62.876 131.992 62.876C132.384 62.876 132.7 62.836 132.94 62.756C133.188 62.668 133.424 62.572 133.648 62.468L133.948 63.164C133.7 63.332 133.376 63.452 132.976 63.524C132.576 63.604 132.256 63.644 132.016 63.644C131.048 63.644 130.316 63.36 129.82 62.792C129.324 62.216 129.076 61.476 129.076 60.572C129.084 59.692 129.32 58.964 129.784 58.388C130.256 57.812 130.924 57.524 131.788 57.524C132.692 57.524 133.332 57.844 133.708 58.484C134.092 59.116 134.284 59.868 134.284 60.74ZM133.348 60.092C133.284 59.572 133.128 59.148 132.88 58.82C132.632 58.492 132.256 58.328 131.752 58.328C131.248 58.328 130.856 58.492 130.576 58.82C130.304 59.148 130.14 59.572 130.084 60.092H133.348ZM141.204 56.6L139.776 60.416H142.68L141.204 56.6ZM141.672 55.34L144.804 63.356L143.856 63.5L142.956 61.184H139.512L138.66 63.5H137.736L140.748 55.34H141.672ZM149.599 58.952C149.375 58.752 149.131 58.596 148.867 58.484C148.611 58.372 148.371 58.316 148.147 58.316C147.523 58.316 147.079 58.54 146.815 58.988C146.559 59.428 146.431 59.96 146.431 60.584C146.431 61.232 146.555 61.772 146.803 62.204C147.059 62.636 147.507 62.852 148.147 62.852C148.371 62.852 148.611 62.796 148.867 62.684C149.131 62.572 149.375 62.416 149.599 62.216V58.952ZM150.559 63.968C150.559 64.576 150.347 65.084 149.923 65.492C149.507 65.9 148.883 66.104 148.051 66.104C147.811 66.104 147.487 66.056 147.079 65.96C146.671 65.872 146.343 65.74 146.095 65.564L146.383 64.88C146.623 64.984 146.859 65.084 147.091 65.18C147.331 65.276 147.643 65.324 148.027 65.324C148.507 65.324 148.887 65.208 149.167 64.976C149.455 64.752 149.599 64.412 149.599 63.956V63.068C149.367 63.244 149.103 63.384 148.807 63.488C148.519 63.592 148.247 63.644 147.991 63.644C147.143 63.644 146.507 63.36 146.083 62.792C145.667 62.216 145.459 61.484 145.459 60.596C145.459 59.708 145.671 58.972 146.095 58.388C146.527 57.804 147.167 57.512 148.015 57.512C148.295 57.512 148.591 57.58 148.903 57.716C149.215 57.844 149.495 58.008 149.743 58.208C149.783 58.128 149.823 58.044 149.863 57.956C149.903 57.86 149.943 57.768 149.983 57.68H150.559V63.968ZM157.312 60.74H153.088C153.112 61.356 153.276 61.868 153.58 62.276C153.884 62.676 154.364 62.876 155.02 62.876C155.412 62.876 155.728 62.836 155.968 62.756C156.216 62.668 156.452 62.572 156.676 62.468L156.976 63.164C156.728 63.332 156.404 63.452 156.004 63.524C155.604 63.604 155.284 63.644 155.044 63.644C154.076 63.644 153.344 63.36 152.848 62.792C152.352 62.216 152.104 61.476 152.104 60.572C152.112 59.692 152.348 58.964 152.812 58.388C153.284 57.812 153.952 57.524 154.816 57.524C155.72 57.524 156.36 57.844 156.736 58.484C157.12 59.116 157.312 59.868 157.312 60.74ZM156.376 60.092C156.312 59.572 156.156 59.148 155.908 58.82C155.66 58.492 155.284 58.328 154.78 58.328C154.276 58.328 153.884 58.492 153.604 58.82C153.332 59.148 153.168 59.572 153.112 60.092H156.376ZM159.667 58.52C159.915 58.24 160.235 58.004 160.627 57.812C161.019 57.612 161.387 57.512 161.731 57.512C162.395 57.512 162.887 57.708 163.207 58.1C163.527 58.484 163.687 58.968 163.687 59.552V63.488H162.739V59.684C162.739 59.292 162.643 58.968 162.451 58.712C162.259 58.456 161.963 58.324 161.563 58.316C161.315 58.316 161.011 58.4 160.651 58.568C160.299 58.736 159.995 58.968 159.739 59.264V63.5H158.791V57.68H159.367L159.667 58.52ZM168.135 63.476C168.047 63.516 167.919 63.56 167.751 63.608C167.591 63.656 167.423 63.68 167.247 63.68C166.751 63.68 166.351 63.536 166.047 63.248C165.751 62.96 165.603 62.54 165.603 61.988V58.496H164.775L164.763 57.776H165.603V56.3L166.563 56.024V57.776H167.619L167.931 58.496H166.563V61.856C166.563 62.152 166.627 62.396 166.755 62.588C166.883 62.772 167.095 62.864 167.391 62.864C167.479 62.864 167.575 62.852 167.679 62.828C167.783 62.796 167.863 62.768 167.919 62.744L168.135 63.476Z" fill="white"/>
</svg>
